# xmcd
#
# Track frame offsets: 
#        150
#        13842
#        29046
#        42800
#        57313
#        72908
#        87751
#        102425
#        116802
#        129766
#        145364
#        156945
#        170075
#        185265
#        200247
#        215533
#        230204
#        243512
#        257177
#        270465
#        283347
#        296187
#
# Disc length: 4113 seconds
#
# Revision: 1
# Processed by: cddbd v1.5.2PL0 Copyright (c) Steve Scherf et al.
# Submitted via: ExactAudioCopyFreeDBPlugin 1.0
#
DISCID=64100f16
DTITLE=Various Artist - St. Louis Women Vol. 1 (1927-1929)
DYEAR=1995
DGENRE=Blues
TTITLE0=St. Louis Bessie - Cryin' for Daddy Blues
TTITLE1=St. Louis Bessie - High Water Blues
TTITLE2=St. Louis Bessie - Creepin' Eel Blues
TTITLE3=St. Louis Bessie - Ghost Creepin' Blues
TTITLE4=St. Louis Bessie - Boa Constrictor Blues
TTITLE5=St. Louis Bessie - Dead Sea Blues
TTITLE6=St. Louis Bessie - Sneakin' Lizard Blues
TTITLE7=St. Louis Bessie - My Daddy's Coffin Blues
TTITLE8=St. Louis Bessie - Mean Bloodhound Blues
TTITLE9=St. Louis Bessie - Death Valley Moan
TTITLE10=St. Louis Bessie - Sweet Black Woman
TTITLE11=St. Louis Bessie - Good Feelin' Blues
TTITLE12=Alice Moore - Black and Evil Blues
TTITLE13=Alice Moore - Prison Blues
TTITLE14=Alice Moore - My Man Blues
TTITLE15=Alice Moore - Broadway St. Woman Blues
TTITLE16=Alice Moore - Have Mercy Blues
TTITLE17=Alice Moore - Cold Iron Walls
TTITLE18=Alice Moore - Loving Heart Blues
TTITLE19=Alice Moore - Serving Time Blues
TTITLE20=Alice Moore - Lonesome Dream Blues
TTITLE21=Alice Moore - Kid Man Blues
EXTD=
EXTT0=
EXTT1=
EXTT2=
EXTT3=
EXTT4=
EXTT5=
EXTT6=
EXTT7=
EXTT8=
EXTT9=
EXTT10=
EXTT11=
EXTT12=
EXTT13=
EXTT14=
EXTT15=
EXTT16=
EXTT17=
EXTT18=
EXTT19=
EXTT20=
EXTT21=
PLAYORDER=
